<svg width="33" height="34" viewBox="0 0 33 34" fill="none" xmlns="http://www.w3.org/2000/svg">
<ellipse cx="16.6002" cy="16.9498" rx="16.15" ry="16.15" fill="#F3EEEE"/>
<path d="M13.6592 21.2258H19.541C18.9521 24.3336 17.7728 26.4491 16.6001 26.4491C15.463 26.4491 14.3196 24.4599 13.7143 21.5056L13.6592 21.2258ZM8.11262 21.226L12.203 21.2258C12.5495 23.2039 13.1369 24.8868 13.9056 26.0645C11.4709 25.3455 9.44388 23.6784 8.25165 21.491L8.11262 21.226ZM20.9972 21.2258L25.0876 21.226C23.9179 23.5436 21.8267 25.3168 19.2956 26.0643C20.0124 24.9644 20.5717 23.4254 20.9248 21.6173L20.9972 21.2258ZM21.2849 15.0508L25.9115 15.0502C26.0362 15.6642 26.1015 16.2998 26.1015 16.9505C26.1015 17.9436 25.9493 18.9011 25.6666 19.8009H21.1992C21.2992 18.8912 21.3515 17.9354 21.3515 16.9505C21.3515 16.5189 21.3415 16.0929 21.3218 15.6739L21.2849 15.0508ZM7.28869 15.0502L11.9152 15.0508C11.8713 15.6683 11.8486 16.3031 11.8486 16.9505C11.8486 17.7385 11.8822 18.5077 11.9468 19.2497L12.0011 19.8009H7.53357C7.25097 18.9011 7.09863 17.9436 7.09863 16.9505C7.09863 16.2998 7.16405 15.6642 7.28869 15.0502ZM13.3468 15.0502H19.8534C19.9011 15.6637 19.9265 16.299 19.9265 16.9505C19.9265 17.7462 19.8886 18.518 19.8184 19.2549L19.7598 19.8009H13.4404C13.333 18.9024 13.2736 17.9453 13.2736 16.9505C13.2736 16.4619 13.2879 15.9824 13.3152 15.5143L13.3468 15.0502ZM19.3972 7.99827L19.2947 7.83655C22.1621 8.68297 24.4649 10.8458 25.5034 13.6252L21.1421 13.6255C20.8423 11.3294 20.2334 9.35751 19.3972 7.99827ZM13.7898 7.87152L13.9055 7.83659C13.0688 9.11862 12.4469 10.9993 12.1166 13.2076L12.0581 13.6255L7.69677 13.6252C8.72132 10.8833 10.9762 8.74144 13.7898 7.87152ZM16.6001 7.4519C17.853 7.4519 19.1134 9.86657 19.6534 13.3262L19.6979 13.6252H13.5023C14.0148 10.0065 15.3114 7.4519 16.6001 7.4519Z" fill="#212121" fill-opacity="0.7"/>
</svg>
