<svg width="24" height="25" viewBox="0 0 24 25" fill="none" xmlns="http://www.w3.org/2000/svg">
<path d="M20.0001 10.5C20.0001 10.2348 19.8947 9.98046 19.7072 9.79292C19.5197 9.60539 19.2653 9.50003 19.0001 9.50003C18.7349 9.50003 18.4805 9.60539 18.293 9.79292C18.1054 9.98046 18.0001 10.2348 18.0001 10.5H20.0001ZM6.00008 10.5C6.00008 10.2348 5.89472 9.98046 5.70719 9.79292C5.51965 9.60539 5.2653 9.50003 5.00008 9.50003C4.73486 9.50003 4.48051 9.60539 4.29297 9.79292C4.10544 9.98046 4.00008 10.2348 4.00008 10.5H6.00008ZM20.2931 13.207C20.4817 13.3892 20.7343 13.49 20.9965 13.4877C21.2587 13.4854 21.5095 13.3803 21.6949 13.1948C21.8803 13.0094 21.9855 12.7586 21.9878 12.4964C21.99 12.2342 21.8892 11.9816 21.7071 11.793L20.2931 13.207ZM12.0001 3.50003L12.7071 2.79303C12.5196 2.60556 12.2652 2.50024 12.0001 2.50024C11.7349 2.50024 11.4806 2.60556 11.2931 2.79303L12.0001 3.50003ZM2.29308 11.793C2.19757 11.8853 2.12139 11.9956 2.06898 12.1176C2.01657 12.2396 1.98898 12.3709 1.98783 12.5036C1.98668 12.6364 2.01198 12.7681 2.06226 12.891C2.11254 13.0139 2.18679 13.1255 2.28069 13.2194C2.37458 13.3133 2.48623 13.3876 2.60913 13.4379C2.73202 13.4881 2.8637 13.5134 2.99648 13.5123C3.12926 13.5111 3.26048 13.4835 3.38249 13.4311C3.50449 13.3787 3.61483 13.3025 3.70708 13.207L2.29308 11.793ZM7.00008 22.5H17.0001V20.5H7.00008V22.5ZM20.0001 19.5V10.5H18.0001V19.5H20.0001ZM6.00008 19.5V10.5H4.00008V19.5H6.00008ZM21.7071 11.793L12.7071 2.79303L11.2931 4.20703L20.2931 13.207L21.7071 11.793ZM11.2931 2.79303L2.29308 11.793L3.70708 13.207L12.7071 4.20703L11.2931 2.79303ZM17.0001 22.5C17.7957 22.5 18.5588 22.184 19.1214 21.6214C19.684 21.0587 20.0001 20.2957 20.0001 19.5H18.0001C18.0001 19.7652 17.8947 20.0196 17.7072 20.2071C17.5197 20.3947 17.2653 20.5 17.0001 20.5V22.5ZM7.00008 20.5C6.73486 20.5 6.48051 20.3947 6.29297 20.2071C6.10544 20.0196 6.00008 19.7652 6.00008 19.5H4.00008C4.00008 20.2957 4.31615 21.0587 4.87876 21.6214C5.44137 22.184 6.20443 22.5 7.00008 22.5V20.5Z" fill="white"/>
</svg>
