<svg width="24" height="25" viewBox="0 0 24 25" fill="none" xmlns="http://www.w3.org/2000/svg">
<path d="M19.9996 10.4998C19.9996 10.2346 19.8942 9.98022 19.7067 9.79268C19.5192 9.60514 19.2648 9.49979 18.9996 9.49979C18.7344 9.49979 18.48 9.60514 18.2925 9.79268C18.1049 9.98022 17.9996 10.2346 17.9996 10.4998H19.9996ZM5.99959 10.4998C5.99959 10.2346 5.89424 9.98022 5.7067 9.79268C5.51916 9.60514 5.26481 9.49979 4.99959 9.49979C4.73438 9.49979 4.48002 9.60514 4.29249 9.79268C4.10495 9.98022 3.99959 10.2346 3.99959 10.4998H5.99959ZM20.2926 13.2068C20.4812 13.3889 20.7338 13.4897 20.996 13.4875C21.2582 13.4852 21.509 13.38 21.6944 13.1946C21.8798 13.0092 21.985 12.7584 21.9873 12.4962C21.9895 12.234 21.8888 11.9814 21.7066 11.7928L20.2926 13.2068ZM11.9996 3.49979L12.7066 2.79279C12.5191 2.60532 12.2648 2.5 11.9996 2.5C11.7344 2.5 11.4801 2.60532 11.2926 2.79279L11.9996 3.49979ZM2.29259 11.7928C2.19708 11.885 2.1209 11.9954 2.06849 12.1174C2.01608 12.2394 1.9885 12.3706 1.98734 12.5034C1.98619 12.6362 2.01149 12.7678 2.06177 12.8907C2.11205 13.0136 2.18631 13.1253 2.2802 13.2192C2.37409 13.3131 2.48574 13.3873 2.60864 13.4376C2.73154 13.4879 2.86321 13.5132 2.99599 13.512C3.12877 13.5109 3.25999 13.4833 3.382 13.4309C3.504 13.3785 3.61435 13.3023 3.70659 13.2068L2.29259 11.7928ZM6.99959 22.4998H16.9996V20.4998H6.99959V22.4998ZM19.9996 19.4998V10.4998H17.9996V19.4998H19.9996ZM5.99959 19.4998V10.4998H3.99959V19.4998H5.99959ZM21.7066 11.7928L12.7066 2.79279L11.2926 4.20679L20.2926 13.2068L21.7066 11.7928ZM11.2926 2.79279L2.29259 11.7928L3.70659 13.2068L12.7066 4.20679L11.2926 2.79279ZM16.9996 22.4998C17.7952 22.4998 18.5583 22.1837 19.1209 21.6211C19.6835 21.0585 19.9996 20.2954 19.9996 19.4998H17.9996C17.9996 19.765 17.8942 20.0194 17.7067 20.2069C17.5192 20.3944 17.2648 20.4998 16.9996 20.4998V22.4998ZM6.99959 20.4998C6.73438 20.4998 6.48002 20.3944 6.29249 20.2069C6.10495 20.0194 5.99959 19.765 5.99959 19.4998H3.99959C3.99959 20.2954 4.31566 21.0585 4.87827 21.6211C5.44088 22.1837 6.20394 22.4998 6.99959 22.4998V20.4998Z" fill="black"/>
</svg>
