<svg width="24" height="25" viewBox="0 0 24 25" fill="none" xmlns="http://www.w3.org/2000/svg">
<path d="M5.14302 14.5C4.39267 13.2712 3.99707 11.8588 4.00002 10.419C4.00002 6.045 7.58202 2.5 12 2.5C16.418 2.5 20 6.045 20 10.419C20.003 11.8588 19.6074 13.2712 18.857 14.5M15 19.5L14.87 20.147C14.73 20.854 14.659 21.207 14.5 21.487C14.255 21.9186 13.8583 22.2436 13.387 22.399C13.082 22.5 12.72 22.5 12 22.5C11.28 22.5 10.918 22.5 10.613 22.4C10.1416 22.2444 9.74483 21.9189 9.50002 21.487C9.34102 21.207 9.27002 20.854 9.13002 20.147L9.00002 19.5M12 16.5V11.5M7.38302 17.598C7.29102 17.322 7.24502 17.183 7.25002 17.071C7.25567 16.9552 7.29476 16.8435 7.36256 16.7494C7.43035 16.6554 7.52394 16.583 7.63202 16.541C7.73602 16.5 7.88202 16.5 8.17202 16.5H15.828C16.119 16.5 16.264 16.5 16.368 16.54C16.4762 16.5821 16.5699 16.6546 16.6377 16.7489C16.7055 16.8431 16.7445 16.955 16.75 17.071C16.755 17.183 16.709 17.321 16.617 17.598C16.447 18.109 16.362 18.365 16.231 18.572C15.957 19.0046 15.5275 19.3156 15.031 19.441C14.793 19.5 14.525 19.5 13.988 19.5H10.012C9.47502 19.5 9.20602 19.5 8.96902 19.44C8.47268 19.3149 8.0432 19.0042 7.76902 18.572C7.63802 18.365 7.55302 18.109 7.38302 17.598Z" stroke="black" stroke-width="1.5" stroke-linecap="round" stroke-linejoin="round"/>
</svg>
