<svg width="37" height="38" viewBox="0 0 37 38" fill="none" xmlns="http://www.w3.org/2000/svg">
<circle cx="18.8" cy="19.0002" r="18.05" fill="#D6D6D6"/>
<path d="M18.3377 9.05469C19.1222 9.06373 19.9035 9.15436 20.6692 9.32512C21.0034 9.39967 21.2534 9.67831 21.2913 10.0187L21.4732 11.6505C21.5556 12.3997 22.1882 12.9672 22.9423 12.968C23.1451 12.9683 23.3456 12.9261 23.5329 12.8432L25.0298 12.1857C25.3411 12.0489 25.7049 12.1235 25.9373 12.3717C27.0191 13.527 27.8247 14.9127 28.2937 16.4243C28.3948 16.7503 28.2784 17.1045 28.0037 17.307L26.6769 18.2851C26.2983 18.5631 26.0748 19.0048 26.0748 19.4745C26.0748 19.9441 26.2983 20.3857 26.6777 20.6644L28.0056 21.6427C28.2804 21.8452 28.3969 22.1995 28.2958 22.5255C27.827 24.037 27.0218 25.4225 25.9407 26.578C25.7086 26.8262 25.3451 26.901 25.0338 26.7645L23.5308 26.1061C23.1007 25.9179 22.6069 25.9454 22.2005 26.1803C21.7942 26.4151 21.5238 26.8293 21.4721 27.2958L21.2914 28.9275C21.2541 29.2639 21.0096 29.5407 20.6802 29.619C19.1322 29.9873 17.5194 29.9873 15.9713 29.619C15.642 29.5407 15.3974 29.2639 15.3602 28.9275L15.1797 27.2983C15.1267 26.8326 14.8559 26.4197 14.4498 26.1857C14.0438 25.9516 13.5508 25.9242 13.1222 26.1113L11.6189 26.7699C11.3075 26.9063 10.9439 26.8315 10.7117 26.5831C9.62999 25.4263 8.82476 24.0391 8.35666 22.5261C8.25583 22.2002 8.37233 21.8461 8.64699 21.6438L9.9758 20.6648C10.3543 20.3868 10.5778 19.9451 10.5778 19.4755C10.5778 19.0058 10.3543 18.5642 9.97529 18.2858L8.64732 17.3085C8.37226 17.1061 8.25566 16.7516 8.35684 16.4254C8.82576 14.9137 9.6314 13.5281 10.7132 12.3728C10.9456 12.1245 11.3093 12.05 11.6207 12.1867L13.1173 12.8442C13.548 13.0332 14.0431 13.0046 14.4513 12.7661C14.8577 12.5304 15.1284 12.1158 15.1806 11.6492L15.3624 10.0187C15.4003 9.67814 15.6505 9.3994 15.985 9.32502C16.7516 9.15453 17.5338 9.06393 18.3377 9.05469ZM18.3244 16.2687C16.5535 16.2687 15.1181 17.7042 15.1181 19.475C15.1181 21.2457 16.5535 22.6813 18.3244 22.6813C20.0951 22.6813 21.5306 21.2457 21.5306 19.475C21.5306 17.7042 20.0951 16.2687 18.3244 16.2687Z" fill="#212121" fill-opacity="0.7"/>
</svg>
