<svg width="14" height="15" viewBox="0 0 14 15" fill="none" xmlns="http://www.w3.org/2000/svg">
<path d="M11.25 15C10.625 15 10.0938 14.7812 9.65625 14.3438C9.21875 13.9062 9 13.375 9 12.75C9 12.675 9.01875 12.5 9.05625 12.225L3.7875 9.15C3.5875 9.3375 3.35625 9.4845 3.09375 9.591C2.83125 9.6975 2.55 9.7505 2.25 9.75C1.625 9.75 1.09375 9.53125 0.65625 9.09375C0.21875 8.65625 0 8.125 0 7.5C0 6.875 0.21875 6.34375 0.65625 5.90625C1.09375 5.46875 1.625 5.25 2.25 5.25C2.55 5.25 2.83125 5.30325 3.09375 5.40975C3.35625 5.51625 3.5875 5.663 3.7875 5.85L9.05625 2.775C9.03125 2.6875 9.01575 2.60325 9.00975 2.52225C9.00375 2.44125 9.0005 2.3505 9 2.25C9 1.625 9.21875 1.09375 9.65625 0.65625C10.0938 0.21875 10.625 0 11.25 0C11.875 0 12.4063 0.21875 12.8438 0.65625C13.2813 1.09375 13.5 1.625 13.5 2.25C13.5 2.875 13.2813 3.40625 12.8438 3.84375C12.4063 4.28125 11.875 4.5 11.25 4.5C10.95 4.5 10.6688 4.44675 10.4063 4.34025C10.1438 4.23375 9.9125 4.087 9.7125 3.9L4.44375 6.975C4.46875 7.0625 4.4845 7.147 4.491 7.2285C4.4975 7.31 4.5005 7.4005 4.5 7.5C4.4995 7.5995 4.4965 7.69025 4.491 7.77225C4.4855 7.85425 4.46975 7.9385 4.44375 8.025L9.7125 11.1C9.9125 10.9125 10.1438 10.7657 10.4063 10.6597C10.6688 10.5537 10.95 10.5005 11.25 10.5C11.875 10.5 12.4063 10.7188 12.8438 11.1562C13.2813 11.5938 13.5 12.125 13.5 12.75C13.5 13.375 13.2813 13.9062 12.8438 14.3438C12.4063 14.7812 11.875 15 11.25 15ZM11.25 13.5C11.4625 13.5 11.6408 13.4282 11.7847 13.2847C11.9288 13.1412 12.0005 12.963 12 12.75C11.9995 12.537 11.9275 12.359 11.784 12.216C11.6405 12.073 11.4625 12.001 11.25 12C11.0375 11.999 10.8595 12.071 10.716 12.216C10.5725 12.361 10.5005 12.539 10.5 12.75C10.4995 12.961 10.5715 13.1392 10.716 13.2847C10.8605 13.4302 11.0385 13.502 11.25 13.5ZM2.25 8.25C2.4625 8.25 2.64075 8.178 2.78475 8.034C2.92875 7.89 3.0005 7.712 3 7.5C2.9995 7.288 2.9275 7.11 2.784 6.966C2.6405 6.822 2.4625 6.75 2.25 6.75C2.0375 6.75 1.8595 6.822 1.716 6.966C1.5725 7.11 1.5005 7.288 1.5 7.5C1.4995 7.712 1.5715 7.89025 1.716 8.03475C1.8605 8.17925 2.0385 8.251 2.25 8.25ZM11.25 3C11.4625 3 11.6408 2.928 11.7847 2.784C11.9288 2.64 12.0005 2.462 12 2.25C11.9995 2.038 11.9275 1.86 11.784 1.716C11.6405 1.572 11.4625 1.5 11.25 1.5C11.0375 1.5 10.8595 1.572 10.716 1.716C10.5725 1.86 10.5005 2.038 10.5 2.25C10.4995 2.462 10.5715 2.64025 10.716 2.78475C10.8605 2.92925 11.0385 3.001 11.25 3Z" fill="#002278"/>
</svg>
